<?xml version="1.0" standalone="no"?><!DOCTYPE svg PUBLIC "-//W3C//DTD SVG 1.1//EN" "http://www.w3.org/Graphics/SVG/1.1/DTD/svg11.dtd"><svg t="1611826401349" class="icon" viewBox="0 0 1024 1024" version="1.1" xmlns="http://www.w3.org/2000/svg" p-id="5383" xmlns:xlink="http://www.w3.org/1999/xlink" width="200" height="200"><defs><style type="text/css"></style></defs><path d="M60.342832 962.631304c7.495718-205.833949 153.446811-376.366903 347.56595-421.346327-87.180572-39.005362-147.918911-126.462227-147.918911-228.090858 0-40.947598 9.870812-79.593779 27.336602-113.703645-6.749728-10.416234-10.667967-22.832008-10.667967-36.166711 0-36.784788 29.839609-66.609047 66.64077-66.609047 10.863419 0 21.107737 2.594081 30.149671 7.187703 39.256072-25.604144 86.123496-40.492226 136.50393-40.492226 138.030703 0 249.944586 111.834065 249.944586 249.783926 0 101.628632-60.737316 189.085496-147.917888 228.090858 194.118116 44.979424 340.069209 215.512379 347.582323 421.346327L60.342832 962.631304z" p-id="5384"></path></svg>